<?xml version="1.0" encoding="UTF-8" standalone="no"?>
<svg
   xmlns:osb="http://www.openswatchbook.org/uri/2009/osb"
   xmlns:dc="http://purl.org/dc/elements/1.1/"
   xmlns:cc="http://creativecommons.org/ns#"
   xmlns:rdf="http://www.w3.org/1999/02/22-rdf-syntax-ns#"
   xmlns:svg="http://www.w3.org/2000/svg"
   xmlns="http://www.w3.org/2000/svg"
   xmlns:sodipodi="http://sodipodi.sourceforge.net/DTD/sodipodi-0.dtd"
   xmlns:inkscape="http://www.inkscape.org/namespaces/inkscape"
   width="512"
   height="512"
   viewBox="0 0 135.46666 135.46666"
   version="1.1"
   id="svg8"
   sodipodi:docname="icon.svg"
   inkscape:version="1.0.1 (3bc2e81, 2020-09-07)">
  <defs
     id="defs2">
    <linearGradient
       id="linearGradient1133"
       osb:paint="solid">
      <stop
         style="stop-color:#88498f;stop-opacity:1;"
         offset="0"
         id="stop1131" />
    </linearGradient>
    <linearGradient
       id="linearGradient1127"
       osb:paint="solid">
      <stop
         style="stop-color:#8ac926;stop-opacity:1;"
         offset="0"
         id="stop1125" />
    </linearGradient>
    <linearGradient
       id="linearGradient1121"
       osb:paint="solid">
      <stop
         style="stop-color:#ffca3a;stop-opacity:1;"
         offset="0"
         id="stop1119" />
    </linearGradient>
    <linearGradient
       id="linearGradient1115"
       osb:paint="solid">
      <stop
         style="stop-color:#0cbaba;stop-opacity:1;"
         offset="0"
         id="stop1113" />
    </linearGradient>
    <linearGradient
       id="linearGradient1109"
       osb:paint="solid">
      <stop
         style="stop-color:#fb3640;stop-opacity:1;"
         offset="0"
         id="stop1107" />
    </linearGradient>
  </defs>
  <sodipodi:namedview
     id="base"
     pagecolor="#002b36"
     bordercolor="#666666"
     borderopacity="1.0"
     inkscape:pageopacity="0"
     inkscape:pageshadow="2"
     inkscape:zoom="0.49497475"
     inkscape:cx="736.01306"
     inkscape:cy="-20.146691"
     inkscape:document-units="px"
     inkscape:current-layer="layer1"
     inkscape:document-rotation="0"
     showgrid="false"
     inkscape:window-width="1920"
     inkscape:window-height="1020"
     inkscape:window-x="0"
     inkscape:window-y="32"
     inkscape:window-maximized="1"
     inkscape:snap-center="false"
     inkscape:snap-bbox="true"
     inkscape:snap-bbox-midpoints="true"
     inkscape:bbox-nodes="true"
     inkscape:snap-bbox-edge-midpoints="true"
     units="px" />
  <metadata
     id="metadata5">
    <rdf:RDF>
      <cc:Work
         rdf:about="">
        <dc:format>image/svg+xml</dc:format>
        <dc:type
           rdf:resource="http://purl.org/dc/dcmitype/StillImage" />
        <dc:title></dc:title>
      </cc:Work>
    </rdf:RDF>
  </metadata>
  <g
     inkscape:label="Layer 1"
     inkscape:groupmode="layer"
     id="layer1">
    <path
       id="path921"
       style="fill:url(#linearGradient1133);stroke:none;stroke-width:3.8386"
       d="M 372.10938 353.91211 A 139.198 139.198 0 0 1 273.67969 394.68164 A 139.198 139.198 0 0 1 254.9375 393.41406 L 246.53125 467.40039 A 213.65268 213.65268 0 0 0 273.67969 469.13477 A 213.65268 213.65268 0 0 0 424.75586 406.55859 L 372.10938 353.91211 z "
       transform="scale(0.26458332)" />
    <path
       id="path921-5"
       style="fill:url(#linearGradient1127);stroke:none;stroke-width:3.8386"
       d="M 148.1875 315.70703 L 82.132812 350.11719 A 213.65268 213.65268 0 0 0 246.53125 467.40039 L 254.9375 393.41406 A 139.198 139.198 0 0 1 148.1875 315.70703 z "
       transform="scale(0.26458332)" />
    <path
       id="path921-5-6"
       style="fill:url(#linearGradient1121);stroke:none;stroke-width:3.8386"
       d="M 86.880859 151.78711 A 213.65268 213.65268 0 0 0 60.027344 255.48242 A 213.65268 213.65268 0 0 0 82.132812 350.11719 L 148.1875 315.70703 A 139.198 139.198 0 0 1 134.48438 255.48242 A 139.198 139.198 0 0 1 152.32812 187.29688 L 86.880859 151.78711 z "
       transform="scale(0.26458332)" />
    <path
       id="path921-5-6-2"
       style="fill:url(#linearGradient1115);stroke:none;stroke-width:3.8386"
       d="M 250.88477 43.050781 A 213.65268 213.65268 0 0 0 86.880859 151.78711 L 152.32812 187.29688 A 139.198 139.198 0 0 1 258.04492 117.16602 L 250.88477 43.050781 z "
       transform="scale(0.26458332)" />
    <path
       id="path921-5-6-2-9"
       style="fill:url(#linearGradient1109);stroke:none;stroke-width:3.8386"
       d="M 273.60742 41.830078 A 213.65269 213.65269 0 0 0 250.88477 43.050781 L 258.04492 117.16602 A 139.198 139.198 0 0 1 273.67969 116.2832 A 139.198 139.198 0 0 1 372.10547 157.05664 L 424.75586 104.40625 A 213.65269 213.65269 0 0 0 273.67969 41.830078 A 213.65269 213.65269 0 0 0 273.60742 41.830078 z "
       transform="scale(0.26458332)" />
  </g>
</svg>
