<?xml version="1.0" encoding="UTF-8" standalone="no"?>
<svg
   xmlns:dc="http://purl.org/dc/elements/1.1/"
   xmlns:cc="http://creativecommons.org/ns#"
   xmlns:rdf="http://www.w3.org/1999/02/22-rdf-syntax-ns#"
   xmlns:svg="http://www.w3.org/2000/svg"
   xmlns="http://www.w3.org/2000/svg"
   xmlns:sodipodi="http://sodipodi.sourceforge.net/DTD/sodipodi-0.dtd"
   xmlns:inkscape="http://www.inkscape.org/namespaces/inkscape"
   width="512"
   height="512"
   viewBox="0 0 135.46666 135.46666"
   version="1.1"
   id="svg8"
   inkscape:version="1.0.1 (3bc2e81, 2020-09-07)"
   sodipodi:docname="strikethrough.svg">
  <defs
     id="defs2" />
  <sodipodi:namedview
     id="base"
     pagecolor="#ffffff"
     bordercolor="#666666"
     borderopacity="1.0"
     inkscape:pageopacity="0.0"
     inkscape:pageshadow="2"
     inkscape:zoom="1.28"
     inkscape:cx="283.92883"
     inkscape:cy="217.09142"
     inkscape:document-units="mm"
     inkscape:current-layer="layer1"
     inkscape:document-rotation="0"
     showgrid="false"
     units="px"
     inkscape:snap-bbox="true"
     inkscape:window-width="1920"
     inkscape:window-height="1020"
     inkscape:window-x="0"
     inkscape:window-y="32"
     inkscape:window-maximized="1">
    <sodipodi:guide
       position="-6.3247306,119.51118"
       orientation="0,512"
       id="guide837" />
    <sodipodi:guide
       position="119.48222,138.88364"
       orientation="512,0"
       id="guide839" />
    <sodipodi:guide
       position="141.70257,15.93915"
       orientation="0,-512"
       id="guide841" />
    <sodipodi:guide
       position="16.045405,147.70694"
       orientation="-512,0"
       id="guide843" />
    <sodipodi:guide
       position="-11.505924,94.539423"
       orientation="0,512"
       id="guide853" />
    <sodipodi:guide
       position="-6.0697675,41.076766"
       orientation="0,-512"
       id="guide857" />
    <sodipodi:guide
       position="-9.4819031,80.269088"
       orientation="0,512"
       id="guide861" />
    <sodipodi:guide
       position="-12.456572,55.231706"
       orientation="0,-512"
       id="guide865" />
    <sodipodi:guide
       position="94.484421,127.25887"
       orientation="512,0"
       id="guide873" />
    <sodipodi:guide
       position="41.19104,138.98195"
       orientation="-512,0"
       id="guide877" />
    <sodipodi:guide
       position="80.254674,147.98705"
       orientation="512,0"
       id="guide881" />
    <sodipodi:guide
       position="55.201327,147.42142"
       orientation="-512,0"
       id="guide885" />
  </sodipodi:namedview>
  <metadata
     id="metadata5">
    <rdf:RDF>
      <cc:Work
         rdf:about="">
        <dc:format>image/svg+xml</dc:format>
        <dc:type
           rdf:resource="http://purl.org/dc/dcmitype/StillImage" />
        <dc:title></dc:title>
      </cc:Work>
    </rdf:RDF>
  </metadata>
  <g
     inkscape:label="Layer 1"
     inkscape:groupmode="layer"
     id="layer1">
    <g
       aria-label="S"
       id="text835"
       style="font-style:normal;font-weight:normal;font-size:143.758px;line-height:1.25;font-family:sans-serif;letter-spacing:0px;word-spacing:0px;fill:#000000;fill-opacity:1;stroke:none;stroke-width:4.12091;stroke-miterlimit:4;stroke-dasharray:none;stroke-opacity:1">
      <path
         id="path860"
         style="font-style:normal;font-variant:normal;font-weight:bold;font-stretch:normal;font-family:'Lexend Deca';-inkscape-font-specification:'Lexend Deca';stroke:none;stroke-width:15.5751;stroke-miterlimit:4;stroke-dasharray:none;stroke-opacity:1"
         d="M 264.96484 60.904297 C 241.78245 60.904297 220.23096 65.249962 200.30859 73.943359 C 180.38623 82.636757 164.26682 94.952735 151.95117 110.89062 C 139.99775 126.82852 134.02148 145.66494 134.02148 167.39844 C 134.02148 186.9685 137.49671 203.90068 144.4375 218.20508 L 240.22656 218.20508 C 230.22207 214.75151 221.43636 210.85832 213.89062 206.51953 C 199.76387 197.82613 192.70117 184.24105 192.70117 165.76758 C 192.70117 149.46746 199.40237 136.78999 212.80469 127.73438 C 226.56923 118.31653 243.41357 113.60742 263.33594 113.60742 C 283.25831 113.60742 300.64487 118.67997 315.49609 128.82227 C 330.34731 138.96456 342.66133 152.18426 352.44141 168.48438 L 393.73633 127.73438 C 381.42067 106.36311 364.3956 89.882211 342.66211 78.291016 C 320.92862 66.699819 295.02951 60.904297 264.96484 60.904297 z M 289.4043 293.79492 C 299.30977 297.51108 307.82673 301.74256 314.95117 306.49219 C 330.52684 316.63448 338.31641 330.7618 338.31641 348.87305 C 338.31641 359.37757 334.69372 368.43234 327.44922 376.03906 C 320.20472 383.64579 310.96725 389.4413 299.73828 393.42578 C 288.50931 397.41023 276.73751 399.4043 264.42188 399.4043 C 238.70391 399.4043 217.69465 393.60681 201.39453 382.01562 C 185.45664 370.06221 170.06216 353.40056 155.21094 332.0293 L 115.00391 378.21289 C 133.11515 404.29309 154.12441 423.12952 178.03125 434.7207 C 202.30031 446.31191 229.1051 452.10742 258.44531 452.10742 C 301.55007 452.10742 335.41754 441.42204 360.04883 420.05078 C 384.68011 398.67952 396.99609 369.88265 396.99609 333.66016 C 396.99609 318.69301 393.62754 305.40945 386.92188 293.79492 L 289.4043 293.79492 z "
         transform="scale(0.26458333)" />
    </g>
    <rect
       style="fill:#000000;stroke:none;stroke-width:6.49135"
       id="rect844"
       width="10.833618"
       height="74.963043"
       x="-73.150139"
       y="30.251812"
       transform="rotate(-90)" />
  </g>
</svg>
